<mxfile host="65bd71144e">
    <diagram id="xE2wWHJzQ8_yCaqnqwvs" name="Page-1">
        <mxGraphModel dx="580" dy="388" grid="1" gridSize="10" guides="1" tooltips="1" connect="1" arrows="1" fold="1" page="1" pageScale="1" pageWidth="850" pageHeight="1100" math="0" shadow="0">
            <root>
                <mxCell id="0"/>
                <mxCell id="1" parent="0"/>
                <mxCell id="2" value="" style="rounded=0;whiteSpace=wrap;html=1;" vertex="1" parent="1">
                    <mxGeometry x="200" y="270" width="460" height="140" as="geometry"/>
                </mxCell>
                <mxCell id="3" value="Thumbnail" style="whiteSpace=wrap;html=1;aspect=fixed;" vertex="1" parent="1">
                    <mxGeometry x="200" y="270" width="140" height="140" as="geometry"/>
                </mxCell>
                <mxCell id="4" value="&lt;p style=&quot;box-sizing: border-box; font-family: Inter, &amp;quot;Hind Siliguri&amp;quot;, sans-serif; margin: 0px; padding: 0px;&quot;&gt;This is demo of &quot;note description&quot; with a demo card design in the user-profile sectipon............&lt;/p&gt;" style="text;html=1;strokeColor=none;fillColor=none;align=center;verticalAlign=middle;whiteSpace=wrap;rounded=0;" vertex="1" parent="1">
                    <mxGeometry x="350" y="270" width="250" height="70" as="geometry"/>
                </mxCell>
                <mxCell id="5" value="Posted by &quot;this guy&quot;" style="text;html=1;strokeColor=none;fillColor=none;align=center;verticalAlign=middle;whiteSpace=wrap;rounded=0;" vertex="1" parent="1">
                    <mxGeometry x="350" y="370" width="120" height="30" as="geometry"/>
                </mxCell>
                <mxCell id="6" value="" style="shape=ellipse;fillColor=#0065FF;strokeColor=none;html=1;sketch=0;" vertex="1" parent="1">
                    <mxGeometry x="640" y="280" width="10" height="10" as="geometry"/>
                </mxCell>
                <mxCell id="8" value="" style="shape=ellipse;fillColor=#0065FF;strokeColor=none;html=1;sketch=0;" vertex="1" parent="1">
                    <mxGeometry x="640" y="300" width="10" height="10" as="geometry"/>
                </mxCell>
                <mxCell id="9" value="" style="shape=ellipse;fillColor=#0065FF;strokeColor=none;html=1;sketch=0;" vertex="1" parent="1">
                    <mxGeometry x="640" y="290" width="10" height="10" as="geometry"/>
                </mxCell>
            </root>
        </mxGraphModel>
    </diagram>
</mxfile>